<?xml version="1.0" encoding="utf-8"?>
<!-- Generator: Adobe Illustrator 26.0.2, SVG Export Plug-In . SVG Version: 6.00 Build 0)  -->
<svg version="1.1" id="Layer_1" xmlns="http://www.w3.org/2000/svg" xmlns:xlink="http://www.w3.org/1999/xlink" x="0px" y="0px"
	 viewBox="0 0 382.16 251.97" style="enable-background:new 0 0 382.16 251.97;" xml:space="preserve">
<style type="text/css">
	.st0{fill:#FBDD40;}
</style>
<g>
	<g>
		<path class="st0" d="M106.67,89.81l0.26,0.06H70.98c3.77-1.3,12.48-16.26,6.96-25.75c-1.95-3.25-5.85-4.94-10.27-5.2
			c-0.85-0.07-1.76,0.13-2.6,0.59c-1.37,0.78-2.67,2.21-0.32,4.75c2.28,2.34,4.68,5.07,6.37,8.06c1.24,2.15,2.08,4.36,2.21,6.57
			c0.2,5.46-5.2,10.99-10.99,10.99H34.17c0,0,11.96-3.38,8.97-13.79c-9.88-34.46,22.11-48.18,49.03-48.18h0.52
			c6.11,0,12.61,2.54,16.13,7.8c0,0,8,8.06-0.13,22.43c-0.26,0.39-0.52,0.85-0.78,1.3c-0.52,0.78-1.11,1.63-1.69,2.47
			c-9.95,13.85-5.98,22.69-1.89,26.34C104.98,88.9,105.76,89.42,106.67,89.81z M81.38,31.29C70.33,34.41,67.59,42.73,68.7,48.65
			c0.85,4.68,7.54,8.58,10.92,11.57c1.3,1.11,2.41,2.6,3.32,4.55C96.6,37.66,86.19,29.92,81.38,31.29z"/>
		<path class="st0" d="M171.05,66.27c-0.07,0.33-4.81,23.6-25.16,23.6h-37.06c0,0,11.38-7.35,8.26-19.7
			c-2.28-8.91,1.37-18.73,7.02-26.73c5.66-7.93,0.2-15.61,0.2-15.61h24.84c2.54,0,4.36,1.63,4.55,4.03c0.2,2.54-0.52,5.85-4.42,8.78
			c-9.23,7.09-10.27,9.95-10.34,10.01c4.42-3.9,16.97-13.2,28.94-1.3C171.18,52.62,173.13,58.08,171.05,66.27z M143.03,52.42
			c-3.19,0.07-6.37,2.28-8.06,5.27c-0.85,1.56-1.56,3.45-1.69,5.33c-0.33,4.81,2.99,8.32-1.89,15.15
			c-4.03,5.66-6.05,10.34,1.56,8.65C146.67,83.76,155.45,52.1,143.03,52.42z"/>
		<path class="st0" d="M231.53,66.66c-3.19,12.81-18.99,23.21-35.18,23.21c-16.26,0-26.86-10.4-23.67-23.21
			c3.25-12.81,18.99-23.21,35.24-23.21C224.11,43.45,234.71,53.85,231.53,66.66z M210.72,66.66c2.86-11.38,1.3-20.61-3.45-20.61
			c-4.75,0-10.92,9.23-13.79,20.61c-2.86,11.44-1.3,20.68,3.45,20.68C201.74,87.34,207.86,78.11,210.72,66.66z"/>
		<path class="st0" d="M286.09,58.21c0,1.04,0.06,1.95,0.19,2.86c0.2,1.11,0.46,2.86,0.52,3.84c0.39,6.05-2.47,10.27-4.75,15.09
			c-1.37,2.73-1.17,5.14-0.65,6.89c0.59,1.76,1.56,2.86,1.69,2.99h-16.13c-3.84,0-3.9-5.2-2.41-7.15
			c-4.42,3.84-16.91,13.2-28.94,1.3c-0.59-0.59-3.19-3.58-3.38-7.09c-0.72-11.12,14.7-24.51,4.88-33.49h17.56
			c1.5,0,10.86,2.86,2.6,18.01c-2.28,4.1-2.73,10.47-2.73,10.47c-0.2,5.27,1.5,9.17,5.92,9.04c3.19-0.07,6.44-2.28,8.06-5.33
			c0.46-0.85,0.91-1.82,1.24-2.86c0.45-4.16-1.3-8.45-2.99-11.12c-1.3-2.08-4.16-7.54-2.28-13.27c0.91-2.8,3.9-4.94,6.7-4.94h23.47
			C294.67,43.45,286.41,48.78,286.09,58.21z"/>
		<path class="st0" d="M346.1,76.67c0,0,0,0,0,0.07c-1.69,5.59-7.54,13.14-27.05,13.14h-4.29H308c-11.31,0-16.45-11.44-9.62-21.98
			c0.19-0.26,0.39-0.59,0.59-0.85c4.81-6.18,5.85-11.9,5.92-12.68c0.06-1.37-0.07-2.6-0.13-3.77c-0.33-2.99-2.6-5.01-5.72-5.01
			h-2.93c0.2-0.59,0.52-1.11,1.04-1.5c0.45-0.39,1.04-0.65,1.63-0.65h6.7c0,0-2.34-7.54,1.76-12.48c0.33-0.33,0.72-0.72,1.11-1.04
			c1.56-1.37,3.51-2.08,5.33-2.08h16.58c0,0-5.59,3.58-7.87,10.01c-1.04,2.99,0.65,5.59,3.71,5.59h4.55h17.36
			c0,0-9.49,5.2-4.68,11.9h-14.7c-2.54,0-3.71-2.47-2.34-4.88c1.3-2.28,3.77-4.55,8.45-4.88h-5.85h-0.85c0,0,0,0-0.06,0
			c-2.86,0-5.66,2.8-5.59,5.59c0.13,3.64-0.33,8.91-2.86,15.35c-1.11,2.73-2.8,5.33-4.55,7.74c-2.02,2.86-2.6,5.72-2.54,8.13
			c0,0,0,0.07,0,0.13c0.06,0.91,1.04,7.35,9.69,2.73c2.8-1.5,4.16-3.38,4.75-5.27c1.3-4.55-1.89-9.23-1.89-9.23h16.91
			C345.13,70.76,347.08,73.42,346.1,76.67z"/>
	</g>
	<g>
		<path class="st0" d="M180.79,137.93c0,2.83,0.18,5.31,0.53,7.79c0.53,3.01,1.24,7.79,1.42,10.44
			c1.06,16.46-6.73,27.97-12.92,41.06c-3.72,7.43-3.19,13.98-1.77,18.76c1.59,4.78,4.25,7.79,4.6,8.14h-43.9
			c-10.44,0-10.62-14.16-6.55-19.47c-12.04,10.44-46.02,35.93-78.77,3.54c-1.59-1.59-8.67-9.74-9.2-19.29
			c-1.95-30.27,40-66.73,13.28-91.16H95.3c4.07,0,29.56,7.79,7.08,49.03c-6.19,11.15-7.43,28.5-7.43,28.5
			c-0.53,14.34,4.07,24.96,16.11,24.6c8.67-0.18,17.52-6.19,21.95-14.51c1.24-2.3,2.48-4.96,3.36-7.79
			c1.24-11.33-3.54-23.01-8.14-30.27c-3.54-5.66-11.33-20.53-6.2-36.11c2.48-7.61,10.62-13.45,18.23-13.45h63.9
			C204.16,97.75,181.68,112.26,180.79,137.93z"/>
		<path class="st0" d="M239.56,224.13c-30.8,0-45.14-5.49-41.6-27.61c2.66-15.75-6.73-24.43-6.73-24.43h50.27
			c4.07,0,10.62,0,13.1,2.3c12.21,10.44-14.16,35.75,3.19,36.99c19.47,1.42,40-47.44,26.02-54.16
			c-19.82-9.74-91.33,27.44-84.61-17.52c6.9-46.2,81.42-41.95,81.42-41.95h54.16c-25.49,20.71-1.06,32.39-1.06,32.39h-55.76
			c-6.73,0-9.56-6.55-5.31-12.39c6.73-9.2,21.95-12.57,21.95-12.57h-6.73c-5.31,0-10.97,1.06-16.46,3.54
			c-26.37,12.21-24.6,32.57-12.39,33.81c11.68,1.06,24.43-0.71,31.15-2.12c6.9-1.24,13.81-1.95,20.53-1.77
			C380.98,140.23,348.94,224.13,239.56,224.13z"/>
	</g>
</g>
</svg>
