<?xml version="1.0" encoding="utf-8"?>
<!-- Generator: Adobe Illustrator 26.0.2, SVG Export Plug-In . SVG Version: 6.00 Build 0)  -->
<svg version="1.1" id="Layer_1" xmlns="http://www.w3.org/2000/svg" xmlns:xlink="http://www.w3.org/1999/xlink" x="0px" y="0px"
	 viewBox="0 0 901.87 496.35" style="enable-background:new 0 0 901.87 496.35;" xml:space="preserve">
<style type="text/css">
	.st0{fill:#FBDD40;}
</style>
<g>
	<g>
		<path class="st0" d="M264.54,229.96c-3.19,12.77-16.13,23.18-28.9,23.18H130.48c-0.67,0.17-1.01,0.17-1.18,0l-64.68,0.17
			c1.85-0.84,7.39-4.03,13.44-9.07c11.59-9.58,25.03-25.54,16.97-43.18c-0.67-1.34-1.18-2.69-1.68-3.86
			c-4.87-14.78,1.34-25.7,9.24-36.62c5.04-6.89,10.75-13.78,14.28-21.67c9.58-19.99-3.36-37.13-4.03-37.97
			c-1.85-3.7-4.7-6.38-8.74-8.06h138.43c7.39,0,13.27,3.02,16.97,7.9c3.7,4.87,5.04,11.59,3.19,18.98
			c-2.35,9.07-9.07,17.3-17.81,22.51c-33.26,19.66-71.9,28.06-74.59,28.56c7.56-0.84,20.5,0.34,22.85,0.5
			c0.17,0,0.34,0.17,0.34,0.17C246.23,177.54,269.92,208.29,264.54,229.96z M184.74,189.47c0,0-6.38-11.76-21.34-9.91
			c-20.5,2.69-21.67,21.5-10.92,30.24c11.76,9.91,27.05,19.66,13.61,35.78C195.83,243.57,197.84,211.65,184.74,189.47z
			 M151.98,170.99c6.72-3.02,15.62-6.22,21.17-10.58c36.96-28.9,35.95-45.86,29.74-54.94c-4.03-5.71-16.97-7.22-23.86,3.36
			c-3.36,4.87-3.02,8.4-4.03,21.84c-0.34,5.88-3.7,12.94-7.73,19.49C160.72,161.08,152.32,170.49,151.98,170.99z"/>
		<path class="st0" d="M379.79,192.33h67.7c0,0-33.94,16.13-20.66,60.82H256.48c22.34-9.91,22.34-36.79,22.34-36.79
			c0.67-17.81,5.04-27.55,10.92-36.79c6.22-9.91,14.11-19.32,20.66-37.13c8.06-21.5,0.5-35.45-6.38-42.84
			c-3.7-4.37-7.39-6.55-7.9-6.72c-0.17-0.17-0.17-0.17-0.17-0.17h75.1c12.6,0,20.5,10.25,16.97,22.85
			c-3.02,11.26-10.42,25.7-27.72,40.32c-1.01,1.01-2.18,2.02-3.19,3.02c-3.02,2.86-5.88,5.71-8.57,8.57
			c-34.1,35.45-29.57,59.81-10.08,71.74c9.07,5.54,18.14,7.06,31.25,7.06c0,0-14.95-8.4-8.4-34.78
			C362.99,204.25,368.36,197.37,379.79,192.33z"/>
		<path class="st0" d="M623.22,134.37c8.4,72.91-29.23,101.47-60.82,112.39c-12.43,4.2-34.44,6.38-46.7,6.38c-1.68,0-3.36,0-5.04,0
			c-26.21-0.84-48.55-11.09-55.61-29.9c-5.71-14.95,0-36.62,8.4-55.61c21.5-48.89,1.85-74.93,1.85-74.93h46.54h10.25
			c8.9,0,40.66,24.86,4.37,75.94c-12.77,17.81-24.86,41.66-27.55,51.74c-10.42,42.5,97.61,29.4,60.98-56.11
			c-5.04-11.93-5.04-21.84-4.87-28.06c0.17-4.87,1.51-9.91,3.02-14.95c1.18-3.7,2.69-7.39,4.54-11.09c1.34-2.52,2.86-5.04,4.7-7.22
			c4.2-4.7,9.91-8.74,15.79-9.91c0.5,0,1.01-0.17,1.51-0.17c0.5-0.17,1.01,0,1.51-0.17c0,0,0,0,0.17,0s0.34,0,0.5,0h64.51
			C651.27,92.7,619.19,100.77,623.22,134.37z"/>
		<path class="st0" d="M808.02,213.66c-3.02,10.92-10.58,27.05-28.22,34.1c-0.34,0-1.68,0.67-4.2,1.68
			c-6.72,2.52-13.61,3.7-20.33,3.7h-68.38c-39.82,0-65.52-29.06-56.45-65.35c12.43-50.23,51.24-73.92,82.82-85.18
			c18.48-6.55,37.46-9.58,55.94-9.58h68.04c0,0-28.22,18.98-22.18,42.67c0.67,2.35,1.18,4.87,2.18,7.73h-59.14
			c-5.54,0-9.07-4.03-8.4-9.41c0.5-3.19,1.51-7.22,3.53-11.42c2.69-5.38,7.06-11.09,14.28-16.46c6.22-4.87,14.78-8.23,15.29-8.4
			c-2.52,0.5-12.1,3.53-12.1,3.53c-18.82,6.05-60.14,22.18-69.89,50.57c-3.02,8.4,3.7,13.94,10.25,10.25
			c11.59-6.89,24.02-15.29,39.48-7.73c23.18,11.26,37.46,4.2,42.84,0.34c0.17-0.17,1.51-1.18,2.35-2.18c0,0,0,1.01-0.17,2.35
			c0,0-0.17,0.84-0.17,1.18c-2.02,10.08-9.58,38.64-32.76,38.64c-27.05,0-37.8-30.41-53.09-26.04c-8.74,3.19-11.93,10.25-12.6,12.26
			c-13.78,41.83,14.62,66.86,29.4,66.86c19.82,0,24.02-16.97,18.48-37.3c-0.67-2.35-1.18-4.87-2.18-7.73h57.29
			C806.17,202.74,809.7,207.78,808.02,213.66z"/>
	</g>
	<g>
		<path class="st0" d="M177.88,301.69l-36.56,14.73c2.27-11.33,0.21-21.22-8.55-20.91c-5.05,0.1-10.2,3.6-12.77,8.34
			c-0.72,1.44-1.44,2.99-1.96,4.53c-0.72,6.59,2.06,13.39,4.74,17.72c1.96,3.19,6.59,11.95,3.6,21.01
			c-1.54,4.43-6.18,7.72-10.61,7.72h-14.21H78.59c0,0,13.08-8.45,13.6-23.38c0-1.54-0.1-3.09-0.31-4.53
			c-0.31-1.65-0.72-4.53-0.82-5.97c-0.62-9.68,3.91-16.38,7.52-23.9c2.06-4.43,1.85-8.14,1.03-10.92c-0.93-2.88-2.47-4.63-2.68-4.74
			v-0.1h5.77h15.55c6.18,0,9.89,5.25,8.03,11.43c7-6.18,26.78-20.91,45.83-2.06C174.79,293.34,176.96,296.95,177.88,301.69z"/>
		<path class="st0" d="M206.52,318.06c-5.87,17.3,4.84,31.52,14.21,32.44c23.38,2.37-15.55-26.06,16.69-26.06h19.26
			c0,0-17.82,14.52-6.28,30.38h-46.04c0,0-24.82,0.52-30.59-19.57c-4.12-14.32,3.4-32.24,18.23-43.16
			c8.03-5.87,19.05-10.81,33.58-10.81h15.24c5.56,0,9.78,1.13,13.08,2.99c3.19,1.85,5.46,4.43,6.9,7.42
			c1.24,2.47,1.96,5.15,2.27,7.83c0.1,0.21,0.1,0.41,0.1,0.62c0.1,0.21,0.1,0.41,0.1,0.51c0.82,8.55-7.72,17.41-16.79,17.41h-33.06
			H206.52z M208.06,313.63c0.21,0,15.66,0.82,24.82-5.87c2.88-2.27,5.25-5.25,6.7-8.45c2.16-4.94,2.68-9.48,1.65-11.84
			c-0.82-2.06-2.16-2.78-5.77-1.75c-4.33,1.13-11.02,5.25-20.6,16.69c-1.96,2.37-3.6,4.74-4.84,7.11
			C209.2,310.96,208.58,312.29,208.06,313.63z"/>
		<path class="st0" d="M325.17,324.45h23.59c0,0-10.71,3.3-8.34,16.69c1.34,7.42-7.93,13.7-17.82,13.7h-27.5
			c0,0-25.65,0.52-31.72-19.57c-4.33-14.32,3.3-32.24,18.44-43.16c8.24-5.87,21.84-10.81,36.77-10.81h12.98
			c18.95,0,21.83,8.75,20.29,14.32c-0.72,2.58-3.4,4.53-6.08,4.53h-24.82c9.37-5.56,15.76-10.81,14.73-12.98
			c-0.93-1.96-3.81-2.47-6.39-1.96c-4.53,1.13-13.8,5.56-23.79,17.2c-18.85,22.04-4.43,46.86,8.14,48.1
			c20.7,2.06-4.53-8.14,1.65-20.08C317.24,326.82,321.36,324.45,325.17,324.45z"/>
		<path class="st0" d="M434.66,281.5h22.97c0,0-0.1,0-0.21,0.21c-11.23,9.78-18.54,23.07-19.78,36.05
			c-1.13,11.84,0.82,21.84,0.82,21.84c1.34,42.43-40.58,55.1-55.82,50.26c-23.38-7.52-38.01,13.8-38.01,13.8l-6.28-24.2
			c-1.54-5.87,3.09-13.29,9.99-15.55c7.52-2.37,18.44-3.4,32.86,1.65c2.27,0.72,4.33,1.24,6.28,1.54
			c23.89,3.5,35.84-20.91,30.28-35.02c-2.99,5.25-6.59,8.55-9.68,11.43c-7,6.08-29.87,20.91-48.82,2.06
			c-0.93-0.93-5.05-5.66-5.36-11.23c-1.13-17.61,23.17-38.83,7.72-53.04h27.81c2.27,0,17.2,4.53,4.02,28.53
			c-3.5,6.49-4.33,16.58-4.33,16.58c-0.31,8.34,2.47,14.52,9.48,14.32c2.58-0.1,5.15-1.03,7.42-2.57c2.16-1.54,4.02-3.5,5.36-5.87
			c0-0.1,0.1-0.21,0.1-0.31l0.1-0.1c2.06-3.3,2.58-7.11,1.34-10.09c-2.99-7.62-5.77-18.75-1.85-28.53
			c2.68-6.8,9.78-11.74,16.69-11.74H434.66z"/>
		<path class="st0" d="M507.07,324.45h23.59c0,0-10.71,3.3-8.34,16.69c1.34,7.42-7.93,13.7-17.82,13.7H477
			c0,0-25.65,0.52-31.72-19.57c-4.33-14.32,3.3-32.24,18.44-43.16c8.24-5.87,21.84-10.81,36.77-10.81h12.98
			c18.95,0,21.83,8.75,20.29,14.32c-0.72,2.58-3.4,4.53-6.08,4.53h-24.82c9.37-5.56,15.76-10.81,14.73-12.98
			c-0.93-1.96-3.81-2.47-6.39-1.96c-4.53,1.13-13.8,5.56-23.79,17.2c-18.85,22.04-4.43,46.86,8.14,48.1
			c20.7,2.06-4.53-8.14,1.65-20.08C499.14,326.82,503.26,324.45,507.07,324.45z"/>
		<path class="st0" d="M595.96,262.96c0.41,4.02-0.82,9.27-6.9,13.9c-7.93,5.97-12.05,10.09-14.11,12.57l-0.1,0.1
			c-7.11,7.11-10.61,16.58-9.17,24.82c1.03,5.15,2.99,13.29-1.65,22.25c-1.03,2.06-1.75,4.02-2.27,5.97
			c-1.54,6.39,4.12,11.43,5.25,12.26h-42.02c0,0,17.92-11.64,12.98-31.21c-3.5-14.11,2.16-29.66,11.12-42.33
			c8.96-12.57,0.31-24.72,0.31-24.72h39.34C592.77,256.57,595.65,259.15,595.96,262.96z"/>
		<path class="st0" d="M571.04,354.83c0,0,14.63-12.05,12.05-24.72c-2.16-10.2-1.24-22.25,4.63-33.89c1.03-1.85,2.16-3.71,3.3-5.36
			c4.02-5.77,10.71-9.58,17.1-9.58h24.1c0,0-2.27,1.44-5.25,4.12c-6.59,5.77-16.69,17.51-13.08,32.65c1.03,3.3,2.78,6.9,5.46,10.61
			c5.36,7.42,3.81,15.86,1.44,19.78c-2.16,3.81-6.39,6.39-10.4,6.39H571.04z M602.35,267.49c1.44-5.97,9.37-10.92,17.61-10.92
			c8.14,0,13.6,4.94,12.15,10.92c-1.54,6.08-9.37,10.92-17.61,10.92C606.26,278.41,600.8,273.57,602.35,267.49z"/>
		<path class="st0" d="M713.99,354.83h-27.81c-2.27,0-17.2-4.43-4.12-28.43c3.61-6.49,4.43-16.58,4.43-16.69
			c0.31-8.24-2.47-14.42-9.48-14.21c-5.05,0.1-10.09,3.6-12.77,8.34c-0.72,1.44-1.44,2.99-1.96,4.53
			c-0.72,6.59,2.16,13.39,4.74,17.72c2.06,3.19,6.59,11.95,3.6,20.91c-1.44,4.53-6.18,7.83-10.61,7.83h-37.18
			c0,0,13.18-8.45,13.59-23.38c0.1-1.54-0.1-3.09-0.31-4.53c-0.21-1.65-0.62-4.53-0.72-5.97c-0.72-9.68,3.81-16.38,7.42-23.9
			c2.16-4.43,1.85-8.14,1.03-10.92c-0.93-2.88-2.47-4.63-2.58-4.74c-0.1,0-0.1-0.1-0.1-0.1h21.42c5.97,0,9.58,4.94,8.14,10.92
			c0,0.21-0.1,0.31-0.1,0.52c6.9-6.18,26.78-20.91,45.73-2.06c0.93,0.93,5.05,5.67,5.36,11.12
			C722.85,319.4,698.54,340.62,713.99,354.83z"/>
		<path class="st0" d="M764.57,281.29h58.71c0,0-6.7,4.33-10.71,12.05c-0.1,0.1-0.1,0.21-0.21,0.21
			c-9.48,16.99-9.89,47.17-9.89,47.17c1.34,42.43-38.93,53.76-54.28,48.92c-23.28-7.42-37.9,13.8-37.9,13.8l-6.28-24.1
			c-1.54-5.97,3.09-13.29,9.99-15.55c7.52-2.47,18.44-3.5,32.86,1.54c2.27,0.82,4.33,1.34,6.28,1.65
			c24.62,3.5,29.04-29.25,29.04-29.25l-6.59,5.77c-7,6.08-26.78,20.91-45.83,2.06c-5.25-5.15-8.24-13.8-5.05-26.78
			C724.81,318.27,732.33,281.29,764.57,281.29z M769.1,340.72c5.05-0.1,10.09-3.6,12.77-8.45c1.34-2.37,2.47-5.36,2.68-8.45
			c0.51-7.62-1.65-13.08,1.54-24c2.78-9.78,11.02-16.38-1.03-13.7C763.33,290.97,749.43,341.24,769.1,340.72z"/>
	</g>
</g>
</svg>
